<svg version="1.1" id="Layer_1" xmlns="http://www.w3.org/2000/svg" x="0" y="0" viewBox="0 0 180 180" style="enable-background:new 0 0 180 180" xml:space="preserve"><style>.st0{fill:#ff916e}.st1{fill:#333}.st2{fill:#fff}</style><path class="st0" d="M154.6 90c0 35.7-28.9 64.6-64.6 64.6-35.7 0-64.6-28.9-64.6-64.6 0-35.7 28.9-64.6 64.6-64.6 35.7 0 64.6 28.9 64.6 64.6z" id="XMLID_157_"/><path class="st1" d="M98.1 25.9v28.6H81.9V25.9c2.7-.3 5.4-.5 8.1-.5 2.8 0 5.5.2 8.1.5z"/><path class="st2" d="M94.8 67.4c-1.1 0-1.9-.9-1.9-1.9 0-1.1.9-1.9 1.9-1.9.9 0 1.7-.8 1.7-1.9v-1.5c0-1-.8-1.9-1.7-1.9H83.1c-.9 0-1.7.8-1.7 1.9v1.5c0 1 .8 1.9 1.7 1.9h2.2c1.1 0 1.9.9 1.9 1.9 0 1.1-.9 1.9-1.9 1.9h-2.2c-3 0-5.5-2.6-5.5-5.7v-1.5c0-3.2 2.5-5.7 5.5-5.7h11.7c3 0 5.5 2.6 5.5 5.7v1.5c0 3.1-2.4 5.7-5.5 5.7z"/><path class="st2" d="M84.2 58.3H65.3c-1.1 0-1.9-.9-1.9-1.9 0-1.1.9-1.9 1.9-1.9h18.9c1.1 0 1.9.9 1.9 1.9 0 1-.8 1.9-1.9 1.9z"/><path class="st2" d="M78.5 60.7H68.3c-1.1 0-1.9-.9-1.9-1.9 0-1.1.9-1.9 1.9-1.9h10.2c1.1 0 1.9.9 1.9 1.9 0 1-.8 1.9-1.9 1.9z"/><path d="M90.2 69.3c1.9 0 3.4-1.5 3.4-3.4s-1.5-3.4-3.4-3.4-3.4 1.5-3.4 3.4c-.1 1.9 1.5 3.4 3.4 3.4z" style="fill:#ffcd50"/><path d="M90.3 65.5c-.5-.2-.6-.2-.6-.5 0-.2.4-.3.6-.3.2 0 .4.1.6.2h.2l.3-.4v-.2c-.2-.1-.5-.2-.7-.3v-.3c0-.1-.1-.1-.1-.1h-.5c-.1 0-.1.1-.1.1v.3c-.5.1-.8.5-.8 1 0 .8.7 1 1.2 1.2.5.2.6.2.6.4s-.3.3-.5.3-.5-.1-.7-.3h-.2l-.7.4s-.1.1 0 .2c.2.2.5.4.8.5v.3c0 .1.1.1.1.1h.5c.1 0 .1-.1.1-.1v-.3c.6-.1.9-.5.9-1 .1-.8-.6-1-1-1.2z" style="fill-rule:evenodd;clip-rule:evenodd;fill:#fff"/><path d="M90.2 61.6c-2.4 0-4.3 1.9-4.3 4.3s1.9 4.3 4.3 4.3 4.3-1.9 4.3-4.3c-.1-2.4-2-4.3-4.3-4.3zm0 7.7c-1.9 0-3.4-1.5-3.4-3.4s1.5-3.4 3.4-3.4 3.4 1.5 3.4 3.4c0 1.8-1.6 3.4-3.4 3.4z" style="fill-rule:evenodd;clip-rule:evenodd;fill:#ffdb76"/><path class="st1" d="M105.8 110.5c-8.6-14-18.9-9.2-7.9-24.5H82.1c11 15.3.7 10.6-7.9 24.5-5.2 8.7-6.3 21.4-.6 29.7 4.3 6.2 10.3 7.3 16.4 7.3 6.1 0 12.1-1.1 16.4-7.3 5.7-8.3 4.6-21-.6-29.7z"/><g style="opacity:.5"><path class="st1" d="M93 86c-4.5 7.1-3 8.8.8 11.8-1.4-2.3-.6-5.1 4.1-11.8H93zM105.8 110.5c-2.1-3.4-4.3-5.7-6.2-7.4 1.1 1.3 2.2 2.7 3.3 4.5 5.2 8.7 6.3 21.4.6 29.7-4.3 6.2-10.3 7.3-16.4 7.3-4.6 0-9-.6-12.8-3.5 4.2 5.4 9.9 6.4 15.7 6.4 6.1 0 12.1-1.1 16.4-7.3 5.7-8.3 4.6-21-.6-29.7z"/></g><path d="m89.9 131.5-.6-2.3c-1.4.3-2.8.2-3.8-.2l.2-1.7c.9.3 2.3.5 3.6.2 1.7-.4 2.5-1.6 2.2-3-.3-1.3-1.4-1.9-3.3-2.1-2.6-.4-4.3-1.1-4.8-3.1-.5-1.9.5-3.7 2.6-4.6l-.6-2.3 1.5-.4.6 2.3c1.4-.3 2.4-.1 3.2.1l-.2 1.7c-.6-.2-1.6-.5-3.1-.1-1.8.4-2.2 1.7-2 2.6.3 1.2 1.3 1.6 3.5 2 2.6.4 4.1 1.3 4.6 3.4.5 1.9-.4 3.9-2.7 4.9l.6 2.4-1.5.2z" style="fill:#ffdb76"/><path class="st1" d="M83.7 82.6c-.2 0-.4-.2-.4-.4v-10c0-.2.2-.4.4-.4s.4.2.4.4v10c0 .2-.2.4-.4.4zM91.3 75c-.2 0-.4-.2-.4-.4V73c0-.2.2-.4.4-.4s.4.2.4.4v1.6c0 .2-.2.4-.4.4zM91.3 84.1c-.2 0-.4-.2-.4-.4v-6.1c0-.2.2-.4.4-.4s.4.2.4.4v6.1c0 .2-.2.4-.4.4zM96.3 77.9c-.2 0-.4-.2-.4-.4v-7.4c0-.2.2-.4.4-.4s.4.2.4.4v7.4c0 .2-.2.4-.4.4z"/><g><path class="st1" d="M74.8 65.5H59.9c-.2 0-.4-.2-.4-.4s.2-.4.4-.4h14.9c.2 0 .4.2.4.4-.1.3-.2.4-.4.4zM63.1 68.8h-2.4c-.2 0-.4-.2-.4-.4s.2-.4.4-.4h2.4c.2 0 .4.2.4.4s-.2.4-.4.4zM56.3 68.8h-9c-.2 0-.4-.2-.4-.4s.2-.4.4-.4h9c.2 0 .4.2.4.4s-.2.4-.4.4zM67.4 73.8H56.5c-.2 0-.4-.2-.4-.4s.2-.4.4-.4h10.9c.2 0 .4.2.4.4s-.2.4-.4.4z"/></g><g><path class="st1" d="M126.3 64.2h-14.9c-.2 0-.4-.2-.4-.4s.2-.4.4-.4h14.9c.2 0 .4.2.4.4s-.1.4-.4.4zM125.1 71.8h-2.4c-.2 0-.4-.2-.4-.4s.2-.4.4-.4h2.4c.2 0 .4.2.4.4 0 .3-.2.4-.4.4zM118.3 71.8h-9c-.2 0-.4-.2-.4-.4s.2-.4.4-.4h9c.2 0 .4.2.4.4-.1.3-.2.4-.4.4zM129.3 76.8h-10.9c-.2 0-.4-.2-.4-.4s.2-.4.4-.4h10.9c.2 0 .4.2.4.4 0 .3-.2.4-.4.4z"/></g><g><path class="st1" d="M62.8 119h-9c-.2 0-.4-.2-.4-.4s.2-.4.4-.4h9c.2 0 .4.2.4.4-.1.2-.2.4-.4.4zM62 123.6h-1.4c-.2 0-.4-.2-.4-.4s.2-.4.4-.4H62c.2 0 .4.2.4.4 0 .3-.2.4-.4.4zM57.9 123.6h-5.5c-.2 0-.4-.2-.4-.4s.2-.4.4-.4h5.5c.2 0 .4.2.4.4 0 .3-.2.4-.4.4zM64.6 126.7H58c-.2 0-.4-.2-.4-.4s.2-.4.4-.4h6.6c.2 0 .4.2.4.4s-.2.4-.4.4z"/></g><g><path class="st1" d="M126 121h-9c-.2 0-.4-.2-.4-.4s.2-.4.4-.4h9c.2 0 .4.2.4.4s-.2.4-.4.4zM119.3 116.4h-1.4c-.2 0-.4-.2-.4-.4s.2-.4.4-.4h1.4c.2 0 .4.2.4.4s-.2.4-.4.4zM127.4 116.4h-5.5c-.2 0-.4-.2-.4-.4s.2-.4.4-.4h5.5c.2 0 .4.2.4.4s-.2.4-.4.4zM121.8 113.3h-6.6c-.2 0-.4-.2-.4-.4s.2-.4.4-.4h6.6c.2 0 .4.2.4.4 0 .3-.1.4-.4.4z"/></g><g><path class="st1" d="M56.8 100.6h-11c-.2 0-.4-.2-.4-.4s.2-.4.4-.4h11c.2 0 .4.2.4.4s-.2.4-.4.4zM48.5 94.9h-1.8c-.2 0-.4-.2-.4-.4s.2-.4.4-.4h1.8c.2 0 .4.2.4.4s-.2.4-.4.4zM58.5 94.9h-6.7c-.2 0-.4-.2-.4-.4s.2-.4.4-.4h6.7c.2 0 .4.2.4.4s-.2.4-.4.4zM51.7 91.2h-8.1c-.2 0-.4-.2-.4-.4s.2-.4.4-.4h8.1c.2 0 .4.2.4.4s-.2.4-.4.4z"/></g><g><path class="st1" d="M137.7 82.6h-3.4c-.2 0-.4-.2-.4-.4s.2-.4.4-.4h3.4c.2 0 .4.2.4.4 0 .3-.2.4-.4.4z"/><path class="st1" d="M135.9 84.5c-.2 0-.4-.2-.4-.4v-3.9c0-.2.2-.4.4-.4s.4.2.4.4v3.9c0 .2-.1.4-.4.4z"/></g><g><path class="st1" d="M43.7 106.7h-3.4c-.2 0-.4-.2-.4-.4s.2-.4.4-.4h3.4c.2 0 .4.2.4.4s-.1.4-.4.4z"/><path class="st1" d="M42 108.5c-.2 0-.4-.2-.4-.4v-3.9c0-.2.2-.4.4-.4s.4.2.4.4v3.9c-.1.3-.2.4-.4.4z"/></g><g><path class="st0" d="M64.2 88.9c-1.4-.6-2.5-1.7-2.5-1.7l1-2.5 1.1.4-.3 1.5s.4.5 1.3.9c1.1.4 2.4.5 2.8-.5.9-2.1-4.4-3.2-3.1-6.6.7-1.6 2.2-2 3.7-1.6l.7-1.8 1.2.5-.7 1.7c1.2.6 2.2 1.6 2.2 1.6l-1 2.3-.9-.4.2-1.5s-.6-.6-1.3-.9c-1.2-.5-2.1-.1-2.4.5-.9 2.1 4.4 3.4 3.1 6.5-.7 1.7-2.3 2.1-3.9 1.8l-.9 2.1-1.2-.5.9-1.8zM72.4 92.9c-.5-.4-.8-.9-.8-.9l.7-.9.4.3-.4.6s.1.3.4.5c.4.3.9.4 1.1.1.6-.7-1.4-1.7-.5-2.9.4-.6 1.1-.6 1.6-.2l.5-.6.4.3-.5.6c.4.4.7.8.7.8l-.6.8-.3-.2.2-.6s-.2-.3-.4-.5c-.4-.3-.8-.3-1 0-.6.7 1.4 1.8.5 2.9-.5.6-1.1.6-1.7.3l-.6.7-.4-.3.7-.8zM56.2 86.1c-.6.1-1.2 0-1.2 0l-.2-1.1.5-.1.3.6s.3.1.7 0c.5-.1.9-.4.8-.8-.2-.9-2.2-.1-2.5-1.5-.1-.7.3-1.2.9-1.4l-.2-.8.5-.1.2.7c.5-.1 1.1 0 1.1 0l.2 1-.4.1-.3-.6s-.3-.1-.7 0c-.5.1-.7.4-.7.7.2.9 2.2.1 2.5 1.5.2.7-.3 1.2-.9 1.5l.2.9-.6.3-.2-.9z"/></g><g><path class="st0" d="M117.9 99.6c-1.5.6-2.9.6-2.9.6l-1-2.5 1.1-.4.9 1.3s.7.1 1.6-.3c1.1-.4 2-1.3 1.6-2.3-.9-2.1-5.4.8-6.8-2.5-.7-1.6.2-3 1.5-3.8l-.7-1.8 1.2-.5.7 1.7c1.3-.4 2.7-.5 2.7-.5l.9 2.3-.9.4-1-1.2s-.8 0-1.6.3c-1.2.5-1.6 1.4-1.3 2.1.9 2.1 5.5-.7 6.8 2.4.7 1.7-.1 3.1-1.5 4l.9 2.1-1.2.5-1-1.9zM126.5 96.6c-.6.1-1.2-.1-1.2-.1l-.1-1.1.5-.1.2.6s.3.1.7 0c.5-.1.9-.3.9-.7-.1-.9-2.2-.2-2.4-1.7-.1-.7.4-1.1 1-1.3l-.1-.8.5-.1.1.8c.6 0 1.1.1 1.1.1l.1 1-.4.1-.3-.6s-.3-.1-.7 0c-.5.1-.8.4-.7.7.1.9 2.2.3 2.4 1.6.1.7-.4 1.2-1 1.4l.1.9-.5.1-.2-.8zM110.3 103.3c-.4.5-.8.9-.8.9l-.9-.6.3-.4.6.2s.2-.1.5-.5.4-.9 0-1.1c-.8-.5-1.6 1.5-2.9.7-.6-.4-.6-1-.4-1.6l-.7-.4.3-.4.6.4c.3-.4.8-.8.8-.8l.8.6-.2.3-.6-.2s-.3.2-.5.5c-.3.5-.2.8 0 1 .8.5 1.7-1.5 2.8-.7.6.4.7 1.1.4 1.7l.8.5-.3.4-.6-.5z"/></g></svg>

